PathFileType	4	(X/Y/Z)	Walk10.trc
DataRate	CameraRate	NumFrames	NumMarkers	Units	OrigDataRate	OrigDataStartFrame	OrigNumFrames
200.000000	200.000000	9	59	mm	200.000000	429	520
Frame#	Times		LFHD		RFHD		CLAV		RACR1		RUA1		RFA1		LACR1		LUA1		LFA1		LWRU		RTH1		RTH3		LTH2		LWRR		RWRR		LCAR		RElbow		RBack		RTB3		RCAR		LTH3		RTB1		LLFC		RWRU		RTB4		T10		RASI		C7		LTH4		LBHD		LASI		STRN		RBHD		RPSI		LTB2		LTH1		RTH2		LTB4		LToe		LTB1		LElbowM		LMMAL		RTH4		LElbow		RToe		LTB3		LCAL		LMT1		RElbowM		LMT5		RMT1		RTB2		LPSI		LLMAL		RLFC		RMT5		RCAL		RLMAL		RMMAL
			X1	Y1	Z1	X2	Y2	Z2	X3	Y3	Z3	X4	Y4	Z4	X5	Y5	Z5	X6	Y6	Z6	X7	Y7	Z7	X8	Y8	Z8	X9	Y9	Z9	X10	Y10	Z10	X11	Y11	Z11	X12	Y12	Z12	X13	Y13	Z13	X14	Y14	Z14	X15	Y15	Z15	X16	Y16	Z16	X17	Y17	Z17	X18	Y18	Z18	X19	Y19	Z19	X20	Y20	Z20	X21	Y21	Z21	X22	Y22	Z22	X23	Y23	Z23	X24	Y24	Z24	X25	Y25	Z25	X26	Y26	Z26	X27	Y27	Z27	X28	Y28	Z28	X29	Y29	Z29	X30	Y30	Z30	X31	Y31	Z31	X32	Y32	Z32	X33	Y33	Z33	X34	Y34	Z34	X35	Y35	Z35	X36	Y36	Z36	X37	Y37	Z37	X38	Y38	Z38	X39	Y39	Z39	X40	Y40	Z40	X41	Y41	Z41	X42	Y42	Z42	X43	Y43	Z43	X44	Y44	Z44	X45	Y45	Z45	X46	Y46	Z46	X47	Y47	Z47	X48	Y48	Z48	X49	Y49	Z49	X50	Y50	Z50	X51	Y51	Z51	X52	Y52	Z52	X53	Y53	Z53	X54	Y54	Z54	X55	Y55	Z55	X56	Y56	Z56	X57	Y57	Z57	X58	Y58	Z58	X59	Y59	Z59

429	2.145	538	1431.8	-16.074	531.4	1420.4	79.895	510.19	1183.6	16.605	438	1208	197.12	456.1	1071.3	280.64	558.79	844.5	321.15	431.76	1211.1	-171.51	438.12	1049.1	-247.74	434.66	846.93	-314.69	408.12	742.04	-350.03	413.14	633.36	217.38	376.15	473.1	161.18	525.6	588.24	-149.51	456.46	733.15	-310.49	599.41	753.79	284.15	444.84	694.44	-364.53	472.19	944.23	315.25	322.26	1140.8	135.19	300.43	121.51	54.685	627.56	705.18	336.68	498.25	484.69	-149.56	359.06	281.06	83.089	542.75	405.94	-113.3	565.64	743.99	347.19	327.23	200.77	68.93	284.45	1065	26.167	505.41	820.16	172.03	368.12	1265.2	17.464	479.59	565.51	-178.92	409.88	1355.1	-43.596	490.62	818.66	-148.2	564.02	1079.2	18.435	402.13	1347.7	89.188	243.3	846.82	67.871	592.46	235.56	-104.98	459.14	646.86	-200.82	449.32	546.85	173.89	616.6	242.25	-48.314	781.22	122.88	-63.221	596.75	327.77	-51.348	364.95	912.39	-202.76	640.91	97.962	-1.6792	392.4	553.15	192.38	391.68	939.73	-269.6	402.11	28.816	57.823	642.53	162.91	-47.888	590.6	41.45	-26.598	748.67	102.65	-30.981	427.23	902.27	247.1	710.44	64.588	-103.71	344.76	29.412	18.7	290.77	207.02	117.82	236.24	840.18	-36.672	618	72.494	-77.021	332.62	391.8	136.4	315.36	23.777	110.18	178.86	54.253	36.619	238.24	70.127	84.979	253.73	79.219	2.8276
430	2.15	543.47	1430.9	-16.584	536.81	1419.6	79.393	515.81	1182.8	16.358	443.44	1207.2	196.77	461.87	1070.7	280.39	564.93	844.22	321.2	437.39	1209.9	-171.93	444.2	1047.9	-248.05	439.88	846.07	-315.6	412.7	741.38	-351.18	418.28	632.84	217.35	380.11	472.84	161.18	530.79	586.39	-149.26	461.33	732.15	-312.06	605.86	753.68	284.16	449.12	693.69	-366.17	478.07	943.75	315.28	327.81	1139.8	134.75	301.3	121.79	54.688	634.19	705.2	336.71	503.21	482.93	-149.35	361.42	280.77	83.084	548.35	404.92	-112.7	572.12	743.76	347.22	328.87	200.8	68.942	290.18	1063.9	25.695	511.25	819.38	172.43	373.56	1264.2	16.974	484.76	563.79	-178.8	415.38	1354.2	-44.135	496.88	817.09	-147.81	569.82	1078.4	18.878	407.56	1346.9	88.649	249.08	846.11	67.091	601.09	235.56	-104.42	464.52	645.23	-200.6	453.79	546.11	173.77	624.96	242.54	-47.672	792.05	125.62	-62.654	603.63	327.78	-50.564	371.05	911.16	-203.1	651.65	98.545	-1.265	396.96	552.74	192.36	397.54	938.7	-269.95	402.15	28.777	57.921	652.26	163.6	-47.36	602.28	41.148	-26.354	759.55	104.99	-30.478	433.15	901.53	247.22	722.06	66.312	-103.24	344.84	29.432	18.696	292.4	207.38	117.77	242.65	839.1	-37.533	629.33	72.789	-76.69	335.86	391.83	136.4	315.35	23.834	110.01	179.12	55.552	36.554	238.63	70.951	84.923	254.23	79.94	2.7634
431	2.155	548.93	1430.1	-17.111	542.21	1418.8	78.873	521.45	1182	16.081	448.87	1206.4	196.37	467.65	1070	280.1	571.04	843.91	321.21	443.03	1208.7	-172.39	450.25	1046.7	-248.4	445.22	845.16	-316.49	417.47	740.67	-352.29	423.47	632.32	217.36	384.19	472.57	161.22	536.08	584.68	-149.03	466.36	731.12	-313.55	612.23	753.52	284.19	453.6	692.89	-367.72	483.95	943.27	315.28	333.37	1138.8	134.25	302.19	122.08	54.726	640.72	705.18	336.76	508.36	481.28	-149.13	363.87	280.45	83.102	554.06	403.94	-112.11	578.54	743.51	347.27	330.56	200.82	68.988	295.93	1062.8	25.175	517.07	818.64	172.9	379.01	1263.2	16.441	490.05	562.17	-178.7	420.88	1353.3	-44.708	503.16	815.47	-147.43	575.63	1077.6	19.287	412.98	1346	88.074	254.89	845.41	66.316	609.35	235.44	-103.81	469.94	643.66	-200.41	458.35	545.38	173.72	632.96	242.68	-46.988	802.13	127.78	-61.916	610.4	327.65	-49.781	377.21	909.92	-203.45	661.58	98.952	-0.74718	401.6	552.32	192.38	403.46	937.63	-270.32	402.17	28.739	58.004	661.4	164.08	-46.746	613.02	40.847	-26.023	769.6	106.85	-29.825	439.04	900.79	247.32	732.8	67.658	-102.61	344.91	29.459	18.702	294.13	207.75	117.79	249.09	838.02	-38.377	639.82	72.968	-76.255	339.24	391.84	136.45	315.35	23.885	109.86	179.39	56.913	36.583	239.06	71.81	84.928	254.72	80.705	2.7563
432	2.16	554.4	1429.2	-17.655	547.6	1418	78.337	527.1	1181.2	15.772	454.29	1205.6	195.94	473.43	1069.3	279.76	577.1	843.57	321.19	448.69	1207.5	-172.88	456.27	1045.5	-248.8	450.7	844.2	-317.35	422.42	739.9	-353.34	428.71	631.8	217.39	388.37	472.29	161.32	541.52	583.13	-148.82	471.54	730.05	-314.96	618.52	753.3	284.22	458.29	692.05	-369.17	489.81	942.79	315.24	338.92	1137.8	133.7	303.12	122.38	54.801	647.17	705.13	336.84	513.74	479.78	-148.89	366.43	280.1	83.149	559.9	403.01	-111.52	584.88	743.24	347.32	332.32	200.84	69.071	301.69	1061.7	24.608	522.86	817.93	173.43	384.47	1262.1	15.862	495.48	560.65	-178.59	426.39	1352.3	-45.316	509.47	813.83	-147.08	581.46	1076.8	19.654	418.39	1345.1	87.462	260.73	844.72	65.553	617.25	235.18	-103.16	475.43	642.18	-200.24	462.99	544.64	173.76	640.61	242.63	-46.259	811.46	129.31	-60.991	617.08	327.37	-48.992	383.44	908.67	-203.83	670.71	99.15	-0.12317	406.32	551.91	192.45	409.46	936.52	-270.71	402.18	28.704	58.069	669.95	164.33	-46.04	622.83	40.519	-25.608	778.82	108.17	-29.009	444.89	900.04	247.41	742.66	68.584	-101.82	344.95	29.494	18.718	295.95	208.11	117.86	255.55	836.94	-39.195	649.47	73.001	-75.716	342.78	391.81	136.56	315.36	23.928	109.75	179.66	58.349	36.71	239.51	72.707	84.999	255.2	81.516	2.8109
433	2.165	559.87	1428.4	-18.215	552.97	1417.2	77.785	532.77	1180.3	15.428	459.71	1204.8	195.46	479.22	1068.5	279.38	583.12	843.22	321.14	454.37	1206.3	-173.41	462.25	1044.3	-249.26	456.3	843.21	-318.17	427.55	739.06	-354.33	434.02	631.3	217.45	392.67	472.01	161.48	547.1	581.76	-148.63	476.89	728.96	-316.28	624.73	753.04	284.26	463.18	691.15	-370.54	495.67	942.3	315.17	344.48	1136.7	133.09	304.08	122.7	54.917	653.53	705.03	336.93	519.35	478.42	-148.63	369.11	279.71	83.231	565.87	402.11	-110.93	591.14	742.96	347.39	334.16	200.85	69.193	307.48	1060.5	23.995	528.62	817.26	174.02	389.94	1261.1	15.234	501.07	559.26	-178.46	431.91	1351.4	-45.957	515.81	812.18	-146.75	587.28	1076	19.972	423.8	1344.2	86.815	266.61	844.04	64.808	624.79	234.79	-102.46	481.02	640.8	-200.08	467.74	543.9	173.87	647.9	242.38	-45.477	820.08	130.18	-59.873	623.65	326.94	-48.192	389.72	907.42	-204.23	679.04	99.113	0.60644	411.13	551.5	192.55	415.52	935.37	-271.12	402.17	28.671	58.113	677.92	164.34	-45.24	631.7	40.139	-25.111	787.23	108.93	-28.027	450.7	899.29	247.48	751.66	69.062	-100.87	344.98	29.536	18.744	297.88	208.48	117.99	262.03	835.88	-39.979	658.27	72.862	-75.073	346.48	391.76	136.72	315.39	23.961	109.67	179.94	59.872	36.935	240.01	73.645	85.14	255.69	82.38	2.9302
434	2.17	565.34	1427.5	-18.789	558.35	1416.4	77.219	538.46	1179.5	15.046	465.13	1204	194.93	485.01	1067.8	278.96	589.1	842.84	321.05	460.08	1205.1	-173.97	468.2	1043.1	-249.76	462.05	842.17	-318.97	432.87	738.17	-355.28	439.4	630.8	217.53	397.1	471.71	161.69	552.86	580.57	-148.44	482.39	727.83	-317.52	630.85	752.74	284.31	468.27	690.21	-371.8	501.52	941.82	315.06	350.05	1135.7	132.43	305.09	123.03	55.074	659.79	704.9	337.04	525.2	477.22	-148.33	371.9	279.29	83.355	571.95	401.26	-110.34	597.32	742.66	347.47	336.08	200.86	69.357	313.29	1059.4	23.34	534.36	816.64	174.65	395.44	1260	14.555	506.82	558	-178.31	437.45	1350.4	-46.632	522.17	810.53	-146.46	593.12	1075.2	20.233	429.21	1343.3	86.134	272.53	843.37	64.086	631.99	234.25	-101.71	486.71	639.52	-199.93	472.6	543.17	174.06	654.85	241.95	-44.642	828.01	130.35	-58.558	630.12	326.36	-47.375	396.07	906.18	-204.64	686.59	98.824	1.4374	416.03	551.09	192.7	421.65	934.2	-271.54	402.15	28.639	58.133	685.32	164.09	-44.343	639.65	39.695	-24.541	794.86	109.1	-26.879	456.48	898.55	247.51	759.81	69.074	-99.767	344.98	29.588	18.782	299.92	208.84	118.19	268.52	834.82	-40.719	666.25	72.538	-74.331	350.36	391.66	136.94	315.42	23.985	109.62	180.23	61.496	37.255	240.54	74.631	85.35	256.18	83.302	3.1156
435	2.175	570.82	1426.7	-19.377	563.71	1415.6	76.639	544.17	1178.6	14.624	470.55	1203.2	194.35	490.79	1067.1	278.51	595.02	842.45	320.94	465.82	1203.9	-174.58	474.13	1041.9	-250.31	467.93	841.09	-319.73	438.38	737.23	-356.16	444.85	630.31	217.65	401.66	471.4	161.97	558.8	579.55	-148.26	488.06	726.68	-318.66	636.89	752.4	284.37	473.57	689.21	-372.97	507.34	941.35	314.91	355.62	1134.7	131.72	306.15	123.39	55.274	665.94	704.74	337.18	531.29	476.17	-148	374.82	278.82	83.525	578.16	400.45	-109.75	603.41	742.34	347.56	338.09	200.85	69.565	319.13	1058.2	22.643	540.08	816.07	175.31	400.95	1259	13.823	512.75	556.87	-178.12	443	1349.5	-47.34	528.57	808.91	-146.2	598.96	1074.5	20.43	434.62	1342.4	85.419	278.49	842.71	63.395	638.85	233.57	-100.91	492.53	638.34	-199.79	477.56	542.45	174.33	661.47	241.32	-43.749	835.28	129.83	-57.052	636.5	325.64	-46.535	402.47	904.94	-205.06	693.38	98.277	2.3617	421.04	550.69	192.9	427.87	932.99	-271.97	402.12	28.611	58.126	692.18	163.58	-43.351	646.69	39.184	-23.909	801.73	108.68	-25.57	462.21	897.81	247.52	767.13	68.617	-98.516	344.97	29.648	18.832	302.08	209.2	118.46	275.02	833.79	-41.406	673.43	72.026	-73.498	354.43	391.53	137.22	315.47	24.001	109.6	180.55	63.237	37.664	241.11	75.67	85.629	256.69	84.29	3.3662
436	2.18	576.3	1425.9	-19.979	569.08	1414.8	76.045	549.89	1177.8	14.16	475.97	1202.4	193.73	496.56	1066.4	278.01	600.89	842.04	320.79	471.6	1202.7	-175.24	480.03	1040.6	-250.91	473.96	839.97	-320.45	444.09	736.22	-356.99	450.38	629.84	217.8	406.38	471.08	162.3	564.92	578.71	-148.08	493.89	725.5	-319.7	642.84	752.02	284.43	479.07	688.17	-374.03	513.15	940.88	314.72	361.2	1133.7	130.95	307.27	123.78	55.518	671.99	704.54	337.33	537.6	475.27	-147.64	377.89	278.32	83.746	584.48	399.68	-109.16	609.4	742.02	347.65	340.19	200.84	69.819	324.99	1057.1	21.906	545.78	815.54	175.99	406.5	1258	13.038	518.84	555.89	-177.89	448.57	1348.6	-48.08	534.99	807.33	-146	604.8	1073.7	20.558	440.03	1341.5	84.672	284.5	842.06	62.739	645.4	232.75	-100.06	498.49	637.29	-199.65	482.65	541.74	174.68	667.77	240.51	-42.802	841.95	128.6	-55.366	642.78	324.78	-45.671	408.94	903.72	-205.49	699.46	97.478	3.3681	426.15	550.29	193.14	434.15	931.77	-272.42	402.07	28.587	58.091	698.52	162.83	-42.271	652.87	38.612	-23.229	807.9	107.67	-24.114	467.9	897.1	247.49	773.67	67.702	-97.139	344.94	29.719	18.894	304.37	209.56	118.8	281.52	832.78	-42.033	679.85	71.335	-72.585	358.7	391.35	137.57	315.52	24.01	109.61	180.91	65.11	38.155	241.74	76.772	85.973	257.23	85.352	3.6796
437	2.185	581.79	1425.1	-20.594	574.45	1414	75.437	555.64	1177	13.652	481.39	1201.6	193.06	502.32	1065.7	277.47	606.7	841.63	320.61	477.42	1201.5	-175.94	485.92	1039.5	-251.55	480.13	838.82	-321.12	449.98	735.17	-357.76	455.99	629.39	217.99	411.26	470.74	162.7	571.23	578.01	-147.92	499.88	724.3	-320.65	648.7	751.61	284.5	484.77	687.07	-375	518.93	940.43	314.5	366.79	1132.7	130.13	308.45	124.2	55.803	677.93	704.32	337.51	544.1	474.52	-147.24	381.11	277.77	84.024	590.9	398.96	-108.57	615.3	741.68	347.75	342.41	200.83	70.122	330.87	1056	21.131	551.47	815.07	176.67	412.08	1257	12.199	525.11	555.04	-177.63	454.16	1347.7	-48.852	541.45	805.81	-145.84	610.66	1073	20.61	445.46	1340.6	83.893	290.57	841.42	62.127	651.66	231.82	-99.164	504.59	636.35	-199.5	487.87	541.05	175.09	673.78	239.54	-41.804	848.05	126.68	-53.517	648.97	323.81	-44.783	415.48	902.52	-205.94	704.88	96.442	4.4415	431.39	549.89	193.42	440.52	930.52	-272.88	402.01	28.567	58.028	704.38	161.85	-41.109	658.24	37.996	-22.516	813.41	106.09	-22.526	473.55	896.41	247.42	779.47	66.351	-95.658	344.9	29.8	18.965	306.79	209.92	119.22	288.02	831.8	-42.59	685.56	70.484	-71.609	363.18	391.13	137.99	315.58	24.018	109.64	181.32	67.13	38.715	242.42	77.945	86.377	257.81	86.496	4.0514
